{"title":"Dr. Dolittle.Million Dollar Mutts-AC3-5,1-DVDRip[Eng]2009","uid":4926729,"size":1457945041,"categoryP":"video","categoryS":"movies","magnet":"?xt=urn:btih:2031f0041e64a5a0458c1011fe6f8c8989a10b6d&amp;dn=Dr.+Dolittle.Million+Dollar+Mutts-AC3-5%2C1-DVDRip%5BEng%5D2009&amp;tr=udp%3A%2F%2Ftracker.openbittorrent.com%3A80&amp;tr=udp%3A%2F%2Fopen.demonii.com%3A1337&amp;tr=udp%3A%2F%2Ftracker.coppersurfer.tk%3A6969&amp;tr=udp%3A%2F%2Fexodus.desync.com%3A6969","seeders":0,"leechers":1,"uploader":"FatFreddy31","files":-1,"time":1243875536,"description":" &lt;a href=&quot;http://www.imdb.com/title/tt1080926/&quot; rel=&quot;nofollow&quot; target=&quot;_NEW&quot;&gt;http://www.imdb.com/title/tt1080926/&lt;/a&gt;\n &lt;a href=&quot;\nhttp://www.amazon.com/Dr-Dolittle-Million-Dollar-Mutts/dp/B001TUZD9S/ref=sr_1_3?ie=UTF8&amp;s=dvd&amp;qid=1243860246&amp;sr=8-3&quot; rel=&quot;nofollow&quot; target=&quot;_NEW&quot;&gt;\nhttp://www.amazon.com/Dr-Dolittle-Million-Dollar-Mutts/dp/B001TUZD9S/ref=sr_1_3?ie=UTF8&amp;s=dvd&amp;qid=1243860246&amp;sr=8-3&lt;/a&gt;\n\nUser Rating:3.7/10 - 124 votes\n\nComedy\n\nDVD Release Date: May 19, 2009  \n\nDirector:Alex Zamm\n\nCast:Kyla Pratt/Jason Bryden/Doron Bell/Curtis Caravaggio, and others.\n\nPlot:\nKyla Pratt plays Maya, the daughter of the famous Dr. Dolittle who is currently off in China helping the pandas, and she herself is about to go to pre-veterinary university in San Francisco but keeps finding out that the suitcase she's packing always ends up unpacked! This is because her dog Lucky can't bear the thought of her leaving and &quot;helps.&quot; Viewing an introductory university tape, Maya finds out that the entire seven-year curriculum entails no immediate work with real animals (while her pet Monkey is annoyed because he had been watching something else!). French-accented Monkey talks toMaya (as do all animals, because she can understand \nthem) while creating Etch-A-Sketch masterpieces, and Lucky tries to convince her that there are more than enough animals she can help on her very own street....\n\nInfo:\n\nCovers included.\n\nGeneral\nFormat                           : AVI\nFormat/Info                      : Audio Video Interleave\nFile size                        : 1.36 GiB\nDuration                         : 1h 26mn\nOverall bit rate                 : 2 244 Kbps\nWriting application              : VirtualDubMod 1.5.4.1 (build 2178/release)\nWriting library                  : VirtualDubMod build 2178/release\n\nVideo\nFormat                           : MPEG-4 Visual\nFormat profile                   : Streaming Video@L1\nFormat settings, BVOP            : Yes\nFormat settings, QPel            : No\nFormat settings, GMC             : No warppoints\nFormat settings, Matrix          : Default\nMuxing mode                      : Packed bitstream\nCodec ID                         : XVID\nCodec ID/Hint                    : XviD\nDuration                         : 1h 26mn\nBit rate                         : 1 789 Kbps\nWidth                            : 720 pixels\nHeight                           : 416 pixels\nDisplay aspect ratio             : 16/9\nFrame rate                       : 23.976 fps\nResolution                       : 24 bits\nColorimetry                      : 4:2:0\nScan type                        : Progressive\nBits/(Pixel*Frame)               : 0.249\nStream size                      : 1.08 GiB (80%)\nWriting library                  : XviD 50\n\nAudio\nFormat                           : AC-3\nFormat/Info                      : Audio Coding 3\nCodec ID                         : 2000\nDuration                         : 1h 26mn\nBit rate mode                    : Constant\nBit rate                         : 448 Kbps\nChannel(s)                       : 6 channels\nChannel positions                : Front: L C R, Surround: L R, LFE\nSampling rate                    : 48.0 KHz\nStream size                      : 277 MiB (20%)\nAlignment                        : Split accross interleaves\nInterleave, duration             : 83 ms (2.00 video frames)\nInterleave, preload duration     : 500 ms\nLanguage                         : English\n\nEnjoy...","torrent":{"xt":"urn:btih:2031f0041e64a5a0458c1011fe6f8c8989a10b6d","amp;dn":"Dr.+Dolittle.Million+Dollar+Mutts-AC3-5%2C1-DVDRip%5BEng%5D2009","amp;tr":["udp%3A%2F%2Ftracker.openbittorrent.com%3A80","udp%3A%2F%2Fopen.demonii.com%3A1337","udp%3A%2F%2Ftracker.coppersurfer.tk%3A6969","udp%3A%2F%2Fexodus.desync.com%3A6969"],"infoHash":"2031f0041e64a5a0458c1011fe6f8c8989a10b6d","infoHashBuffer":{"type":"Buffer","data":[32,49,240,4,30,100,165,160,69,140,16,17,254,111,140,137,137,161,11,109]},"announce":[],"urlList":[]}}